# xmcd
#
# Track frame offsets:
#	150
#	13100
#	25890
#	39542
#	55400
#	69815
#	82400
#	94625
#	108530
#	121417
#	133290
#	146535
#	159757
#	172932
#	185782
#
# Disc length: 2660
#
# Revision: 3
# Processed by: cddbd v1.5.2PL0 Copyright (c) Steve Scherf et al.
# Submitted via: kJams Pro (development) 1.0patch46.21
#
DISCID=ce0a620f
DTITLE=Various Artist - SC 55
DYEAR=1989
DGENRE=Country
TTITLE0=Jimmy Dickens - May The Bird Of Paradise Fly Up Your Nose
TTITLE1=Hank Locklin - Send Me The Pillow That You Dream On
TTITLE2=Roy Clark - Tips Of My Fingers
TTITLE3=Marty Robbins - I Walk Alone
TTITLE4=Patsy Cline - Imagine That
TTITLE5=Jody Miller - Queen Of The House
TTITLE6=Tammy Wynette - The Ways To Love A Man
TTITLE7=Eddy Arnold - Just A Little Lovin'
TTITLE8=Hank Williams - Settin' The Woods On Fire
TTITLE9=Lefty Frizzell - She's Gone Gone Gone
TTITLE10=George Jones - You Comb Her Hair
TTITLE11=Kitty Wells - Amigo's Guitar
TTITLE12=George Jones - A Girl I Used To Know
TTITLE13=Wanda Jackson - In The Middle Of A Heartache
TTITLE14=Tex Williams - Smoke! Smoke! Smoke!
EXTD=MediaType: Karaoke CD+G Producer: Sound Choice
EXTT0=
EXTT1=
EXTT2=
EXTT3=
EXTT4=
EXTT5=
EXTT6=
EXTT7=
EXTT8=
EXTT9=
EXTT10=
EXTT11=
EXTT12=
EXTT13=
EXTT14=
PLAYORDER=
